<mxfile host="65bd71144e">
    <diagram id="T82kFZGkt_xlzCdHbpGt" name="Page-1">
        <mxGraphModel dx="1504" dy="699" grid="1" gridSize="10" guides="1" tooltips="1" connect="1" arrows="1" fold="1" page="1" pageScale="1" pageWidth="850" pageHeight="1100" math="0" shadow="0">
            <root>
                <mxCell id="0"/>
                <mxCell id="1" parent="0"/>
                <mxCell id="2" value="PapaParse&lt;br&gt;XHR&lt;br&gt;Converts on browser" style="aspect=fixed;html=1;points=[];align=center;image;fontSize=12;image=img/lib/azure2/general/Browser.svg;" vertex="1" parent="1">
                    <mxGeometry x="67.5" y="268" width="140" height="112" as="geometry"/>
                </mxCell>
                <mxCell id="3" value="Worker enables CORS&lt;br&gt;and range headers&lt;br&gt;" style="verticalLabelPosition=bottom;html=1;verticalAlign=top;align=center;strokeColor=none;fillColor=#00BEF2;shape=mxgraph.azure.worker_role;" vertex="1" parent="1">
                    <mxGeometry x="363" y="274" width="125" height="100" as="geometry"/>
                </mxCell>
                <mxCell id="8" value="CSV" style="edgeStyle=none;html=1;exitX=0;exitY=0.5;exitDx=0;exitDy=0;entryX=1;entryY=0.5;entryDx=0;entryDy=0;entryPerimeter=0;" edge="1" parent="1" source="6" target="3">
                    <mxGeometry relative="1" as="geometry"/>
                </mxCell>
                <mxCell id="6" value="" style="aspect=fixed;perimeter=ellipsePerimeter;html=1;align=center;shadow=0;dashed=0;spacingTop=3;image;image=img/lib/active_directory/web_server.svg;" vertex="1" parent="1">
                    <mxGeometry x="670" y="254" width="112" height="140" as="geometry"/>
                </mxCell>
                <mxCell id="7" value="CSV" style="endArrow=classic;html=1;" edge="1" parent="1" source="3" target="2">
                    <mxGeometry width="50" height="50" relative="1" as="geometry">
                        <mxPoint x="250" y="340" as="sourcePoint"/>
                        <mxPoint x="450" y="330" as="targetPoint"/>
                    </mxGeometry>
                </mxCell>
                <mxCell id="10" value="Fetch and offer download&lt;br&gt;" style="aspect=fixed;html=1;points=[];align=center;image;fontSize=12;image=img/lib/azure2/general/Browser.svg;" vertex="1" parent="1">
                    <mxGeometry x="77.5" y="524" width="140" height="112" as="geometry"/>
                </mxCell>
                <mxCell id="11" value="Worker Performs the Conversion" style="verticalLabelPosition=bottom;html=1;verticalAlign=top;align=center;strokeColor=#d79b00;fillColor=#ffcd28;shape=mxgraph.azure.worker_role;gradientColor=#ffa500;" vertex="1" parent="1">
                    <mxGeometry x="373" y="530" width="125" height="100" as="geometry"/>
                </mxCell>
                <mxCell id="12" value="CSV" style="edgeStyle=none;html=1;exitX=0;exitY=0.5;exitDx=0;exitDy=0;entryX=1;entryY=0.5;entryDx=0;entryDy=0;entryPerimeter=0;" edge="1" parent="1" source="13" target="11">
                    <mxGeometry relative="1" as="geometry"/>
                </mxCell>
                <mxCell id="13" value="" style="aspect=fixed;perimeter=ellipsePerimeter;html=1;align=center;shadow=0;dashed=0;spacingTop=3;image;image=img/lib/active_directory/web_server.svg;" vertex="1" parent="1">
                    <mxGeometry x="680" y="510" width="112" height="140" as="geometry"/>
                </mxCell>
                <mxCell id="14" value="JSON" style="endArrow=classic;html=1;" edge="1" parent="1" source="11" target="10">
                    <mxGeometry width="50" height="50" relative="1" as="geometry">
                        <mxPoint x="260" y="596" as="sourcePoint"/>
                        <mxPoint x="460" y="586" as="targetPoint"/>
                    </mxGeometry>
                </mxCell>
            </root>
        </mxGraphModel>
    </diagram>
</mxfile>